<svg width="17" height="49" viewBox="0 0 17 49" fill="none" xmlns="http://www.w3.org/2000/svg">
<path id="Vector" d="M11.7317 47.3259C10.4959 46.6163 9.49875 45.7191 8.73228 44.6417C7.91497 43.5154 7.32448 42.2765 6.95688 40.9288C6.58929 39.581 6.4094 38.2596 6.4094 36.9681V32.9699C6.4094 30.7963 5.88148 29.2346 4.82563 28.2885C3.76978 27.3425 2.16254 26.8657 0 26.8657V21.9627C2.16254 21.9627 3.76978 21.4897 4.82563 20.5399C5.88148 19.5939 6.4094 18.0133 6.4094 15.8059V11.8077C6.4094 10.4187 6.61275 8.98458 7.02336 7.50544C7.43397 6.0263 8.07921 4.73862 8.963 3.6424C9.69427 2.69635 10.6563 1.91924 11.849 1.31482C13.0417 0.710398 14.4612 0.406311 16.1154 0.406311L16.9836 4.25433C15.9433 4.22054 15.1456 4.43078 14.5825 4.88128C14.0194 5.33178 13.6127 5.92493 13.3546 6.657C13.1004 7.39281 12.9518 8.21498 12.9088 9.11973C12.8657 10.0282 12.8462 10.9217 12.8462 11.804V15.8021C12.8462 17.7468 12.3495 19.4737 11.3524 20.9754C10.3552 22.4808 8.81049 23.6221 6.71834 24.4067C8.83004 25.1913 10.3786 26.3288 11.368 27.8155C12.3535 29.3021 12.8501 31.0178 12.8501 32.9662V36.9644C12.8501 37.8466 12.9048 38.7439 13.0143 39.6486C13.1238 40.5571 13.335 41.3755 13.64 42.1113C13.9451 42.8472 14.3674 43.4403 14.9031 43.8908C15.4389 44.3413 16.1311 44.5478 16.9836 44.5178L16.1154 48.3921C14.43 48.3921 12.9713 48.0354 11.7356 47.3259H11.7317Z" fill="#8257E5"/>
</svg>
