<svg width="18" height="49" viewBox="0 0 18 49" fill="none" xmlns="http://www.w3.org/2000/svg">
<path id="Vector" d="M2.47297 43.8945C3.00872 43.444 3.43105 42.8509 3.73608 42.1151C4.0411 41.3792 4.25618 40.5571 4.3735 39.6523C4.49081 38.7438 4.55339 37.8503 4.55339 36.9681V32.9699C4.55339 32.0239 4.6668 31.1229 4.89752 30.2744C5.12825 29.426 5.48018 28.6301 5.95727 27.898C6.43436 27.1622 7.03269 26.5052 7.75614 25.9233C8.47959 25.3452 9.34383 24.8497 10.3488 24.4404C9.53154 24.1138 8.80806 23.7196 8.17846 23.2654C7.54886 22.8074 7.0053 22.3006 6.54385 21.745C5.86342 20.9265 5.35896 20.018 5.0383 19.0119C4.71763 18.0058 4.55339 16.9396 4.55339 15.8134V11.8152C4.55339 10.933 4.53383 10.0395 4.49081 9.13096C4.44779 8.22245 4.29919 7.40404 4.045 6.66823C3.79081 5.93241 3.38022 5.33925 2.8171 4.89251C2.25398 4.44576 1.45622 4.23553 0.416016 4.26556L1.28415 0.417542C3.10647 0.417542 4.63941 0.774187 5.88297 1.48372C7.12652 2.19326 8.13937 3.14682 8.92148 4.34064C9.6684 5.41809 10.2041 6.62318 10.517 7.95591C10.8298 9.28864 10.9902 10.5763 10.9902 11.8189V15.8171C10.9902 16.7331 11.0801 17.5403 11.26 18.2461C11.4399 18.9481 11.7175 19.545 12.089 20.0368C12.5818 20.7088 13.2778 21.1968 14.1694 21.5084C15.065 21.82 16.1404 21.974 17.3996 21.974V26.8769C15.9879 26.8769 14.8108 27.0684 13.8761 27.4513C12.9376 27.8342 12.2337 28.4537 11.7566 29.3021C11.5024 29.7601 11.3108 30.2969 11.1818 30.9089C11.0527 31.5208 10.9902 32.2116 10.9902 32.9812V36.9794C10.9902 38.2558 10.7946 39.5772 10.4036 40.9513C10.0125 42.3253 9.43375 43.5492 8.66728 44.6304C7.90081 45.7566 6.89972 46.6689 5.66789 47.3634C4.43216 48.0579 2.97351 48.407 1.28806 48.407L0.41993 44.5327C1.25288 44.5665 1.94114 44.3563 2.47689 43.9058L2.47297 43.8945Z" fill="#8257E5"/>
</svg>
